<?xml version="1.0" standalone="no"?>
<!DOCTYPE svg PUBLIC "-//W3C//DTD SVG 20010904//EN"
 "http://www.w3.org/TR/2001/REC-SVG-20010904/DTD/svg10.dtd">
<svg version="1.0" xmlns="http://www.w3.org/2000/svg"
 width="260.000000pt" height="260.000000pt" viewBox="0 0 260.000000 260.000000"
 preserveAspectRatio="xMidYMid meet">
<metadata>
Created by potrace 1.11, written by Peter Selinger 2001-2013
</metadata>
<g transform="translate(0.000000,260.000000) scale(0.100000,-0.100000)"
fill="#000000" stroke="none">
<path d="M1109 2411 c-334 -109 -573 -357 -675 -698 -37 -126 -45 -346 -16
-484 50 -244 187 -461 384 -609 81 -61 228 -138 306 -161 l44 -13 -65 -22
c-132 -44 -249 -125 -306 -211 -43 -65 -41 -73 18 -73 47 0 52 3 108 59 64 64
162 117 273 148 93 25 367 25 460 0 111 -31 209 -84 273 -148 57 -57 60 -59
113 -59 30 0 54 3 54 7 0 19 -69 109 -114 149 -49 44 -202 126 -259 140 -25 6
-21 9 45 31 162 54 337 173 447 303 l55 65 -162 3 c-159 2 -164 2 -195 -22
-18 -13 -63 -40 -102 -59 -305 -152 -668 -112 -939 103 -143 113 -259 293
-307 475 -30 112 -30 307 0 420 28 108 108 266 175 347 120 145 291 254 469
298 27 7 47 18 47 26 0 21 -35 17 -131 -15z"/>
</g>
</svg>
